<svg aria-hidden="true" style="position:absolute;width:0;height:0" xmlns="http://www.w3.org/2000/svg" overflow="hidden">
<defs>
<symbol id="form-mail-icon" viewBox="0 0 32 32">
<path d="M26.671 5.334H5.334a2.663 2.663 0 00-2.653 2.667l-.014 16.003c0 1.467 1.2 2.667 2.667 2.667h21.337c1.467 0 2.667-1.2 2.667-2.667V8.001c0-1.467-1.2-2.667-2.667-2.667zm-.534 5.669l-9.427 5.893a1.343 1.343 0 01-1.421-.004l.006.003-9.427-5.893a1.133 1.133 0 111.205-1.918l-.004-.003 8.935 5.587 8.935-5.588a1.133 1.133 0 111.206 1.918l-.005.003z"/></symbol>
<symbol id="form-name-icon" viewBox="0 0 32 32">
<path d="M16.003 16.003a5.334 5.334 0 100-10.668 5.334 5.334 0 100 10.668zm0 2.667c-3.561 0-10.668 1.787-10.668 5.334v1.334c0 .733.599 1.334 1.334 1.334h18.67c.733 0 1.334-.601 1.334-1.334v-1.334c0-3.547-7.109-5.334-10.668-5.334z"/></symbol>
<symbol id="form-tel-icon" viewBox="0 0 32 32" class="form-icon">
<path d="M24.886 19.777l-3.268-.373a2.555 2.555 0 00-2.11.732l-2.368 2.368c-3.67-1.894-6.586-4.811-8.429-8.373l-.051-.108 2.383-2.377a2.555 2.555 0 00.731-2.123l.001.012-.373-3.243a2.578 2.578 0 00-2.557-2.276H6.616c-1.454 0-2.664 1.209-2.575 2.664.683 10.988 9.472 19.763 20.448 20.446 1.453.089 2.664-1.12 2.664-2.575v-2.226-.012A2.55 2.55 0 0024.9 19.78l-.012-.001z"/></symbol>
</defs>
</svg>